<svg width="124" height="20" viewBox="0 0 124 20" fill="none" xmlns="http://www.w3.org/2000/svg">
<path d="M51.6829 0.0877686L55.4414 5.01351L56.136 0.0877686H51.6829Z" fill="#08A3DE"/>
<path d="M56.136 0.0877686L59.3223 4.2643L55.4414 5.01351L56.136 0.0877686Z" fill="#7BC6D6"/>
<path d="M59.3223 4.26428V9.3187L55.4414 5.01349L59.3223 4.26428Z" fill="#48A8C1"/>
<path d="M66.9618 0.0877686L63.2033 5.01351L62.5087 0.0877686H66.9618Z" fill="#08A3DE"/>
<path d="M62.5087 0.0877686L59.3224 4.2643L63.2033 5.01351L62.5087 0.0877686Z" fill="#31739E"/>
<path d="M59.3224 4.26428V9.3187L63.2033 5.01349L59.3224 4.26428Z" fill="#7BC6D6"/>
<path d="M35.6733 0.0877686L38.1567 3.3732L40.1253 0.0877686H35.6733Z" fill="#31739E"/>
<path d="M40.1253 0.0877686L43.3116 4.2643L38.1566 3.3732L40.1253 0.0877686Z" fill="#08A3DE"/>
<path d="M43.3116 4.26427L41.4161 7.14804L38.1566 3.37317L43.3116 4.26427Z" fill="#48A8C1"/>
<path d="M50.9511 0.0877686L47.772 4.20057L46.4979 0.0877686H50.9511Z" fill="#7BC6D6"/>
<path d="M46.498 0.0877686L43.3116 4.2643L47.772 4.20057L46.498 0.0877686Z" fill="#31739E"/>
<path d="M43.3116 4.2643V9.31871L47.772 4.20056L43.3116 4.2643Z" fill="#48A8C1"/>
<path d="M51.6829 0.0877686L55.4414 5.01351L51.6829 7.0687V0.0877686Z" fill="#31739E"/>
<path d="M55.4414 5.01355L55.4318 10.5177L51.6829 7.06875L55.4414 5.01355Z" fill="#7BC6D6"/>
<path d="M51.6829 7.06873V14.206L55.4318 10.5177L51.6829 7.06873Z" fill="#31739E"/>
<path d="M55.4318 10.5177L51.6841 14.206L55.4426 16.6845C55.4426 16.6845 55.433 12.0269 55.433 10.5177H55.4318Z" fill="#08A3DE"/>
<path d="M51.6829 14.2059V19.9723L55.4414 16.6844L51.6829 14.2059Z" fill="#31739E"/>
<path d="M55.4414 16.6846V19.9688H51.6829L55.4414 16.6846Z" fill="#48A8C1"/>
<path d="M66.9822 0.0877686V7.70967L63.1925 5.01351L66.9822 0.0877686Z" fill="#7BC6D6"/>
<path d="M63.1925 5.01355V10.1533L66.9822 7.70972L63.1925 5.01355Z" fill="#31739E"/>
<path d="M63.1925 10.1533V15.9317L66.9822 7.70972L63.1925 10.1533Z" fill="#08A3DE"/>
<path d="M66.9822 7.70972V15.3497L63.1925 15.9317L66.9822 7.70972Z" fill="#7BC6D6"/>
<path d="M63.1925 15.9317L66.9822 19.9663V15.3496L63.1925 15.9317Z" fill="#08A3DE"/>
<path d="M63.1925 15.9316V19.9711H66.9822L63.1925 15.9316Z" fill="#31739E"/>
<path d="M87.8852 0.0841919L84.1027 3.43696L84.1099 0.0817871L87.8852 0.0841919Z" fill="#31739E"/>
<path d="M87.8817 0.0842285V5.84215L84.0919 3.437L87.8817 0.0842285Z" fill="#48A8C1"/>
<path d="M84.0919 3.43701V8.05249L87.8817 5.84216L84.0919 3.43701Z" fill="#08A3DE"/>
<path d="M84.0919 8.05249V14.0654L87.8817 5.84216L84.0919 8.05249Z" fill="#31739E"/>
<path d="M87.8817 5.84216V13.6769L84.0919 14.0654L87.8817 5.84216Z" fill="#7BC6D6"/>
<path d="M84.0919 14.0653L87.8817 19.9627V13.6769L84.0919 14.0653Z" fill="#08A3DE"/>
<path d="M84.0919 14.0653V19.9627H87.8817L84.0919 14.0653Z" fill="#48A8C1"/>
<path d="M111.316 19.9663L115.095 16.6448L115.138 19.9663H111.316Z" fill="#7BC6D6"/>
<path d="M111.316 19.9664V13.9222L115.104 16.6449L111.316 19.9664Z" fill="#31739E"/>
<path d="M115.104 16.6449V11.7191L111.316 13.9222L115.104 16.6449Z" fill="#08A3DE"/>
<path d="M115.104 11.719V8.08728L111.316 13.9222L115.104 11.719Z" fill="#7BC6D6"/>
<path d="M111.316 13.9222V6.44336L115.108 8.08247L111.316 13.9222Z" fill="#31739E"/>
<path d="M115.104 3.65944L111.316 0.0817871V6.4434L115.104 3.65944Z" fill="#31739E"/>
<path d="M115.104 3.65944V0.0817871H111.316L115.104 3.65944Z" fill="#7BC6D6"/>
<path d="M78.0107 17.2954L82.6475 19.9687L81.1383 14.5499L78.0107 17.2954Z" fill="#7BC6D6"/>
<path d="M78.0012 17.287L78.685 19.9699H82.6511L78.0012 17.287Z" fill="#48A8C1"/>
<path d="M74.1178 13.6841L73.1701 17.2942L71.3202 9.91284L74.1178 13.6841Z" fill="#7BC6D6"/>
<path d="M71.3202 9.91284L70.0258 14.55L73.1809 17.299L71.3202 9.91284Z" fill="#48A8C1"/>
<path d="M73.1809 17.299L68.5166 19.9687L70.0258 14.5499L73.1809 17.299Z" fill="#31739E"/>
<path d="M73.1653 17.3038L72.4839 19.9639L68.5166 19.9687L73.1653 17.3038Z" fill="#48A8C1"/>
<path d="M20.7434 19.9783L16.9645 16.296L16.9309 19.9783H20.7434Z" fill="#31739E"/>
<path d="M20.7435 19.9784V12.9409L16.9537 16.2961L20.7435 19.9784Z" fill="#7BC6D6"/>
<path d="M16.9537 16.2961V12.4563L20.7435 12.9409L16.9537 16.2961Z" fill="#31739E"/>
<path d="M16.9537 12.4563V9.63623L20.7435 12.9409L16.9537 12.4563Z" fill="#48A8C1"/>
<path d="M20.7435 12.9408V8.5719L16.9537 9.63618L20.7435 12.9408Z" fill="#08A3DE"/>
<path d="M16.9537 9.63615L20.7435 5.06396V8.57187L16.9537 9.63615Z" fill="#7BC6D6"/>
<path d="M16.9537 9.63615V5.06396H20.7435L16.9537 9.63615Z" fill="#08A3DE"/>
<path d="M26.791 3.63892L30.5688 7.78899L30.6024 3.63892H26.791Z" fill="#08A3DE"/>
<path d="M26.791 3.63892V9.97527L30.5796 7.78899L26.791 3.63892Z" fill="#31739E"/>
<path d="M30.5796 7.78906V11.9572L26.791 9.97534L30.5796 7.78906Z" fill="#7BC6D6"/>
<path d="M30.5796 11.9572V16.6436L26.791 9.97534L30.5796 11.9572Z" fill="#08A3DE"/>
<path d="M26.791 9.97534V16.1722L30.5796 16.6436L26.791 9.97534Z" fill="#48A8C1"/>
<path d="M30.5796 16.6436L26.791 19.9784V16.1722L30.5796 16.6436Z" fill="#31739E"/>
<path d="M30.5796 16.6436V19.9783H26.791L30.5796 16.6436Z" fill="#7BC6D6"/>
<path d="M34.9811 0.0612793L30.5555 3.67501L34.9811 3.68343V0.0612793Z" fill="#7BC6D6"/>
<path d="M34.9811 0.078125H27.8395L30.5555 3.68584L34.9811 0.078125Z" fill="#08A3DE"/>
<path d="M30.5555 3.68584H26.7826L27.8395 0.078125L30.5555 3.68584Z" fill="#48A8C1"/>
<path d="M26.7826 3.68584H22.8441L27.8395 0.078125L26.7826 3.68584Z" fill="#7BC6D6"/>
<path d="M27.8395 0.078125H22.8453L22.8441 3.68584L27.8395 0.078125Z" fill="#31739E"/>
<path d="M98.4626 3.68708L102.23 8.12457L102.263 3.67505L98.4626 3.68708Z" fill="#08A3DE"/>
<path d="M98.4507 3.67505V9.98735L102.24 8.12457L98.4507 3.67505Z" fill="#48A8C1"/>
<path d="M102.24 8.12463V11.6794L98.4507 9.98742L102.24 8.12463Z" fill="#7BC6D6"/>
<path d="M102.24 11.6793V16.3862L98.4507 9.9873L102.24 11.6793Z" fill="#08A3DE"/>
<path d="M98.4507 9.9873V16.207L102.245 16.391L98.4507 9.9873Z" fill="#31739E"/>
<path d="M102.24 16.3863L98.4507 19.9663V16.1614L102.24 16.3863Z" fill="#31739E"/>
<path d="M102.24 16.3862L105.259 19.9663H98.4507L102.24 16.3862Z" fill="#48A8C1"/>
<path d="M103.878 0.09021L102.234 3.67027L106.61 3.67748L103.878 0.09021Z" fill="#48A8C1"/>
<path d="M103.884 0.0866699H98.4447L102.234 3.67996L103.884 0.0866699Z" fill="#08A3DE"/>
<path d="M102.234 3.67996H98.4519L98.4447 0.0866699L102.234 3.67996Z" fill="#31739E"/>
<path d="M109.751 3.67996H106.593L109.756 0.0866699L109.751 3.67996Z" fill="#7BC6D6"/>
<path d="M109.756 0.0866699H103.864L106.593 3.67996L109.756 0.0866699Z" fill="#08A3DE"/>
<path d="M45.2094 19.9724L41.4257 15.7682L41.4329 19.9724H45.2094Z" fill="#08A3DE"/>
<path d="M45.2107 19.9724V13.3534L41.4221 15.7682L45.2107 19.9724Z" fill="#7BC6D6"/>
<path d="M41.4221 15.7681V11.5543L45.2107 13.3534L41.4221 15.7681Z" fill="#31739E"/>
<path d="M41.4221 11.5543V7.10718L43.4532 9.42333L41.4221 11.5543Z" fill="#31739E"/>
<path d="M41.4221 11.5543L45.2106 13.3533V7.09631C45.2106 7.09631 41.3993 11.5663 41.4221 11.5543Z" fill="#08A3DE"/>
<path d="M43.3116 4.26428L41.4221 7.10716L43.3116 9.3187V4.26428Z" fill="#08A3DE"/>
<path d="M74.1178 13.6841L73.17 17.2942L77.0246 13.761L74.1178 13.6841Z" fill="#31739E"/>
<path d="M77.0247 13.7611L78.0024 17.3015H73.1605L77.0247 13.7611Z" fill="#48A8C1"/>
<path d="M71.3202 9.91279L72.8138 4.52527L75.5574 8.29654L71.3202 9.91279Z" fill="#08A3DE"/>
<path d="M75.5574 8.29663L71.3202 9.91289L74.1178 13.6842L75.5574 8.29663Z" fill="#48A8C1"/>
<path d="M75.5575 8.29649L77.0247 13.761L79.4144 8.11731L75.5575 8.29649Z" fill="#31739E"/>
<path d="M75.5575 8.29652L77.2358 0.0949707L79.4144 8.11733L75.5575 8.29652Z" fill="#7BC6D6"/>
<path d="M74.0099 0.0877686L75.5575 8.29653L72.8138 4.52526L74.0099 0.0877686Z" fill="#31739E"/>
<path d="M77.0247 13.7611L78.0024 17.3015L81.1383 14.55L77.0247 13.7611Z" fill="#31739E"/>
<path d="M79.4144 8.11731L77.0247 13.761L81.1383 14.5499L79.4144 8.11731Z" fill="#08A3DE"/>
<path d="M74.0099 0.0877686H77.2418L75.5575 8.2857" fill="#08A3DE"/>
<path d="M87.8816 5.84216L90.2245 9.29355L87.8816 13.6769V5.84216Z" fill="#31739E"/>
<path d="M87.8816 5.84211L93.7696 4.44592L90.2245 9.29349L87.8816 5.84211Z" fill="#48A8C1"/>
<path d="M92.168 0.0817871L93.8103 4.44592L87.8816 5.84211L92.168 0.0817871Z" fill="#08A3DE"/>
<path d="M92.168 0.0817871H97.1382L93.8103 4.44592L92.168 0.0817871Z" fill="#7BC6D6"/>
<path d="M90.2245 9.29346L92.7306 13.2114L87.8816 13.6768L90.2245 9.29346Z" fill="#48A8C1"/>
<path d="M92.7307 13.2114L89.9259 16.8059L87.7809 13.6961L92.7307 13.2114Z" fill="#31739E"/>
<path d="M92.7306 13.2114L89.9258 16.8059L97.1766 19.9723L92.7306 13.2114Z" fill="#7BC6D6"/>
<path d="M97.1766 19.9723L89.9258 16.8059L92.1656 19.9723H97.1766Z" fill="#48A8C1"/>
<path d="M102.24 16.3862H109.801L105.259 19.9663L102.24 16.3862Z" fill="#08A3DE"/>
<path d="M105.259 19.9663H109.78V16.3862L105.259 19.9663Z" fill="#7BC6D6"/>
<path d="M102.24 8.12463L104.131 9.4643L102.24 11.6794V8.12463Z" fill="#31739E"/>
<path d="M102.24 8.12463H107.853L104.077 9.4643L102.24 8.12463Z" fill="#48A8C1"/>
<path d="M104.077 9.46423L102.24 11.6794H107.88L104.077 9.46423Z" fill="#7BC6D6"/>
<path d="M107.853 8.12463V11.6794L103.996 9.4643L107.853 8.12463Z" fill="#08A3DE"/>
<path d="M111.316 6.44334L115.104 8.08245V3.65698L111.316 6.44334Z" fill="#08A3DE"/>
<path d="M115.104 0.0817692L118.774 0.0805664L115.104 3.66664V0.0817692Z" fill="#08A3DE"/>
<path d="M118.774 0.0805664L115.104 3.66183L119.314 3.66664L118.774 0.0805664Z" fill="#48A8C1"/>
<path d="M115.104 11.719V8.08728L117.001 11.7154L115.104 11.719Z" fill="#48A8C1"/>
<path d="M118.768 0.0829899C118.768 0.0829899 122.473 0.749214 123.352 4.76581L119.098 3.66305L118.768 0.0817871V0.0829899Z" fill="#08A3DE"/>
<path d="M118.768 11.3547C118.768 11.3547 122.473 10.6885 123.352 6.67188L119.096 8.0837L118.768 11.3559V11.3547Z" fill="#7BC6D6"/>
<path d="M116.98 11.7143L115.101 8.0813H119.105L116.98 11.7143Z" fill="#08A3DE"/>
<path d="M119.256 8.03201L123.352 6.6707V4.76703L119.095 3.66187L119.091 8.08733H119.09H119.091" fill="#31739E"/>
<path d="M9.92242 0.283807C9.24341 0.0998136 8.52721 0 7.78701 0C5.18973 0 2.88877 1.21099 1.47437 3.07137H1.48036L9.92242 0.282604V0.283807Z" fill="#08A3DE"/>
<path d="M1.47444 3.07251C1.47444 3.07251 1.47325 3.07491 1.47205 3.07612L1.48044 3.07371H1.47444V3.07251Z" fill="black"/>
<path d="M15.2225 5.20957C14.8506 4.07073 14.1968 3.04975 13.3403 2.21997L11.2612 5.45249L15.2225 5.20957Z" fill="#7BC6D6"/>
<path d="M6.8573 3.73161C7.11523 3.67509 7.38036 3.64622 7.64908 3.64622C9.11867 3.61977 10.4215 4.32808 11.1761 5.41521L10.0124 0.307882C9.98483 0.300667 9.95724 0.293452 9.92965 0.285034L6.8585 3.73161H6.8573Z" fill="#31739E"/>
<path d="M6.74569 3.75805C6.78288 3.74842 6.82007 3.74001 6.85725 3.73159L9.9284 0.285016C9.9284 0.285016 9.9248 0.285016 9.92241 0.283813L1.48035 3.07258L6.74689 3.75805H6.74569Z" fill="#48A8C1"/>
<path d="M11.2049 5.45487L11.2625 5.45126L13.3415 2.21875C12.431 1.33606 11.2901 0.669836 10.0112 0.307861L11.1749 5.41519C11.1845 5.42842 11.1953 5.44164 11.2037 5.45608L11.2049 5.45487Z" fill="#08A3DE"/>
<path d="M6.57179 16.1662C6.57179 16.1662 6.56219 16.1638 6.55619 16.1614L6.5166 19.9014C6.92929 19.9663 7.35397 20 7.78585 20C8.56803 20 9.32142 19.8894 10.034 19.6861L6.74934 16.2155C6.68935 16.1999 6.62937 16.1842 6.57179 16.1662Z" fill="#31739E"/>
<path d="M6.74567 3.75798L1.47913 3.07251L1.47073 3.07491C1.44074 3.1146 1.41195 3.15308 1.38196 3.19397L3.7381 6.9015C4.02722 5.37544 5.25808 4.12837 6.74447 3.75918L6.74567 3.75798Z" fill="#7BC6D6"/>
<path d="M6.54057 16.1566L2.33813 17.8823C3.45622 18.9249 4.90422 19.6501 6.51777 19.9014L6.55736 16.1614C6.55736 16.1614 6.54657 16.1578 6.54057 16.1566Z" fill="#48A8C1"/>
<path d="M11.6548 14.1037L13.8226 17.2677C14.5196 16.4548 15.039 15.4987 15.3246 14.4525L11.6548 14.1025V14.1037Z" fill="#7BC6D6"/>
<path d="M11.5732 14.0953L10.1204 19.6608C11.5912 19.2219 12.8724 18.3777 13.8225 17.2677L11.6547 14.1038L11.5732 14.0953Z" fill="#48A8C1"/>
<path d="M11.5612 14.0941C10.9109 15.4025 9.52532 16.3201 7.90097 16.3501C7.50268 16.3574 7.11639 16.3093 6.75049 16.2155L10.0352 19.6861C10.064 19.6777 10.0916 19.6692 10.1204 19.6608L11.5731 14.0953H11.5612V14.0941Z" fill="#08A3DE"/>
<path d="M3.74051 6.90162L1.38436 3.19409C0.586582 4.28964 0.0899202 5.59924 0.0107422 7.01467L3.71292 7.05916C3.72011 7.00625 3.72971 6.95333 3.74051 6.90042V6.90162Z" fill="#31739E"/>
<path d="M3.71297 7.06024L0.0107975 7.01575C0.00359948 7.14803 0 7.28152 0 7.415V12.5873C0 12.6378 5.12607e-07 12.6883 0.00239985 12.7388L3.69977 7.1829C3.70457 7.14202 3.70817 7.10113 3.71417 7.06145L3.71297 7.06024Z" fill="#08A3DE"/>
<path d="M3.6758 7.65437C3.6722 7.49443 3.6818 7.33689 3.69859 7.18176L0.0012207 12.7376C0.00242037 12.8266 0.00601985 12.9156 0.0120182 13.0046L3.6902 12.1604L3.677 7.65558L3.6758 7.65437Z" fill="#7BC6D6"/>
<path d="M5.44654 15.6347L0.0168457 13.0708C0.14401 14.9528 1.00897 16.6424 2.3382 17.8823L6.54064 16.1566C6.14715 16.0339 5.77885 15.8572 5.44654 15.6347Z" fill="#31739E"/>
<path d="M3.69014 12.4899V12.1604L0.0119629 13.0046C0.0131626 13.0263 0.0143614 13.0491 0.0167608 13.0707L5.44646 15.6346C4.40634 14.9371 3.71653 13.7935 3.69134 12.4899H3.69014Z" fill="#08A3DE"/>
<path d="M16.925 0.0817871L18.8697 1.90368L16.9226 3.74362" fill="#31739E"/>
<path d="M16.9202 3.74485L18.854 1.88928L20.7663 3.74004" fill="#48A8C1"/>
<path d="M20.7687 3.734L18.8252 1.9097L20.7867 0.0817871" fill="#7BC6D6"/>
<path d="M20.7891 0.0817692L18.8349 1.93133L16.9226 0.0805664" fill="#08A3DE"/>
<path d="M116.969 11.7083L119.804 19.9663L120.231 14.485L116.969 11.7083Z" fill="#31739E"/>
<path d="M120.231 14.485L124 19.9687L119.804 19.9663L120.231 14.485Z" fill="#48A8C1"/>
<path d="M120.231 14.485L120.72 10.4865L124 19.9687L120.231 14.485Z" fill="#7BC6D6"/>
<path d="M116.969 11.7083L118.807 10.9964L120.732 10.5142L120.231 14.4851L116.969 11.7083Z" fill="#08A3DE"/>
<path d="M116.969 11.7083L120.729 10.5214L119.098 8.08618L116.969 11.7083Z" fill="#48A8C1"/>
</svg>
