<svg id="Layer_1" data-name="Layer 1" xmlns="http://www.w3.org/2000/svg" viewBox="0 0 1259.76 987.27"><defs><style>.cls-1{fill:#231f20;}.cls-2{fill:#fff;}</style></defs><polygon class="cls-1" points="915.13 298 915.13 0 570.5 0 570.5 76.06 0 76.06 0 765.33 570.5 765.33 570.5 987.27 1259.76 987.27 1259.76 298 915.13 298"/><path class="cls-2" d="M816.89,48.57V255.88c0,21.8,5.64,24.43,29.7,26.31V298H797.13c-16.12,0-22.08-7.71-22.08-18.23v-6.66h-.7s-14.73,29.1-55.74,29.1c-48.37,0-79.57-38.21-79.57-93.6,0-56.79,34-93.59,81.32-93.59,38.91,0,51.53,21.73,51.53,21.73h.7s-.35-4.56-.35-10.52V48.57h44.52M773.3,208.23c0-27.69-14.38-55-44.17-55-24.54,0-44.87,20-44.87,55.38,0,34,17.88,56.09,44.17,56.09C751.56,264.67,773.3,247.84,773.3,208.23Z"/><path class="cls-2" d="M771.93,885.82H945.85c88.66,0,165.8-43.31,165.8-139.41,0-48.72-25-97.45-77.82-113V632c36.54-19.62,58.2-58.2,58.2-102.86,0-79.18-61.59-123.85-148.21-123.85H771.93Zm87.3-284.23V480.45h83.24c40.6,0,60.9,25,60.9,59.56s-21.65,61.58-59.55,61.58Zm0,209.12V672h93.39c44,0,69.7,29.1,69.7,69,0,40.6-25,69.71-69.7,69.71Z"/><path class="cls-2" d="M143.1,642.64V616c40.58-3.17,50.09-8.25,50.09-44.39V269.78c0-36.78-9.51-41.22-50.09-44.39V198.76H349.19c131.9,0,208.62,22.82,208.62,114.14,0,52-32.34,82.43-90,95.75,66,15.22,102.73,51.36,102.73,108.43,0,91.32-76.73,125.56-209.26,125.56ZM324.46,241.87c-11.42,0-19,7.61-19,19V387.09h44.39c52.63,0,87.51-15.85,87.51-74.19,0-59-33.61-71-81.8-71Zm-19,188.34V580.5c0,11.41,7.61,19,19,19h36.78c57.07,0,88.77-24.1,88.77-82.44,0-59-33-86.87-87.51-86.87Z"/></svg>